{"title":"Fergie Ft. YG - L.A. Love [La La] 720p [Sbyky]","uid":11746235,"size":77499251,"categoryP":"video","categoryS":"music_videos","magnet":"?xt=urn:btih:2633db09340f5b09a0135ea37298f4de72c13111&amp;dn=Fergie+Ft.+YG+-+L.A.+Love+%5BLa+La%5D+720p+%5BSbyky%5D&amp;tr=udp%3A%2F%2Ftracker.openbittorrent.com%3A80&amp;tr=udp%3A%2F%2Fopen.demonii.com%3A1337&amp;tr=udp%3A%2F%2Ftracker.coppersurfer.tk%3A6969&amp;tr=udp%3A%2F%2Fexodus.desync.com%3A6969","seeders":2,"leechers":0,"uploader":"Sbyky","files":1,"time":1426027061,"description":"General\nComplete name                            : Fergie Ft. YG - L.A. Love [La La] 720p [Sbyky].mp4\nFormat                                   : MPEG-4\nFormat profile                           : Base Media\nCodec ID                                 : isom\nFile size                                : 73.9 MiB\nDuration                                 : 5mn 9s\nOverall bit rate mode                    : Variable\nOverall bit rate                         : 2 006 Kbps\nEncoded date                             : UTC 2014-12-01 10:44:14\nTagged date                              : UTC 2014-12-01 10:44:14\n\nVideo\nID                                       : 1\nFormat                                   : AVC\nFormat/Info                              : Advanced Video Codec\nFormat profile                           : &lt;a class=&quot;__cf_email__&quot; href=&quot;/cdn-cgi/l/email-protection&quot; data-cfemail=&quot;f4b9959d9ab4b8c7dac5&quot;&gt;[email&amp;#160;protected]&lt;/a&gt;&lt;script cf-hash='f9e31' type=&quot;text/javascript&quot;&gt;\n/* &lt;![CDATA[ */!function(){try{var t=&quot;currentScript&quot;in document?document.currentScript:function(){for(var t=document.getElementsByTagName(&quot;script&quot;),e=t.length;e--;)if(t[e].getAttribute(&quot;cf-hash&quot;))return t[e]}();if(t&amp;&amp;t.previousSibling){var e,r,n,i,c=t.previousSibling,a=c.getAttribute(&quot;data-cfemail&quot;);if(a){for(e=&quot;&quot;,r=parseInt(a.substr(0,2),16),n=2;a.length-n;n+=2)i=parseInt(a.substr(n,2),16)^r,e+=String.fromCharCode(i);e=document.createTextNode(e),c.parentNode.replaceChild(e,c)}}}catch(u){}}();/* ]]&gt; */&lt;/script&gt;\nFormat settings, CABAC                   : Yes\nFormat settings, ReFrames                : 3 frames\nCodec ID                                 : avc1\nCodec ID/Info                            : Advanced Video Coding\nDuration                                 : 5mn 8s\nBit rate                                 : 1 877 Kbps\nWidth                                    : 1 280 pixels\nHeight                                   : 720 pixels\nDisplay aspect ratio                     : 16:9\nFrame rate mode                          : Variable\nFrame rate                               : 23.976 fps\nMinimum frame rate                       : 23.974 fps\nMaximum frame rate                       : 23.981 fps\nColor space                              : YUV\nChroma subsampling                       : 4:2:0\nBit depth                                : 8 bits\nScan type                                : Progressive\nBits/(Pixel*Frame)                       : 0.085\nStream size                              : 69.1 MiB (94%)\nEncoded date                             : UTC 2014-12-01 10:44:14\nTagged date                              : UTC 2014-12-01 10:44:14\n\nAudio\nID                                       : 2\nFormat                                   : AAC\nFormat/Info                              : Advanced Audio Codec\nFormat profile                           : LC\nCodec ID                                 : 40\nDuration                                 : 5mn 9s\nBit rate mode                            : Variable\nBit rate                                 : 126 Kbps\nChannel(s)                               : 2 channels\nChannel positions                        : Front: L R\nSampling rate                            : 44.1 KHz\nCompression mode                         : Lossy\nStream size                              : 4.63 MiB (6%)\nEncoded date                             : UTC 2014-12-01 10:43:24\nTagged date                              : UTC 2014-12-01 10:43:24\n\nShared By Sbyky","torrent":{"xt":"urn:btih:2633db09340f5b09a0135ea37298f4de72c13111","amp;dn":"Fergie+Ft.+YG+-+L.A.+Love+%5BLa+La%5D+720p+%5BSbyky%5D","amp;tr":["udp%3A%2F%2Ftracker.openbittorrent.com%3A80","udp%3A%2F%2Fopen.demonii.com%3A1337","udp%3A%2F%2Ftracker.coppersurfer.tk%3A6969","udp%3A%2F%2Fexodus.desync.com%3A6969"],"infoHash":"2633db09340f5b09a0135ea37298f4de72c13111","infoHashBuffer":{"type":"Buffer","data":[38,51,219,9,52,15,91,9,160,19,94,163,114,152,244,222,114,193,49,17]},"announce":[],"urlList":[]}}